<svg xmlns="http://www.w3.org/2000/svg" width="205" height="42" viewBox="0 0 205 42">
  <metadata><?xpacket begin="﻿" id="W5M0MpCehiHzreSzNTczkc9d"?>
<x:xmpmeta xmlns:x="adobe:ns:meta/" x:xmptk="Adobe XMP Core 5.6-c138 79.159824, 2016/09/14-01:09:01        ">
   <rdf:RDF xmlns:rdf="http://www.w3.org/1999/02/22-rdf-syntax-ns#">
      <rdf:Description rdf:about=""/>
   </rdf:RDF>
</x:xmpmeta>
                                                                                                    
                                                                                                    
                                                                                                    
                                                                                                    
                                                                                                    
                                                                                                    
                                                                                                    
                                                                                                    
                                                                                                    
                                                                                                    
                                                                                                    
                                                                                                    
                                                                                                    
                                                                                                    
                                                                                                    
                                                                                                    
                                                                                                    
                                                                                                    
                                                                                                    
                                                                                                    
                           
<?xpacket end="w"?></metadata>
<defs>
    <style>
      .cls-1 {
        fill: #303441;
      }

      .cls-1, .cls-3 {
        fill-rule: evenodd;
      }

      .cls-2 {
        fill: #234dd4;
      }

      .cls-3 {
        fill: #fff;
      }
    </style>
  </defs>
  <path id="homepress" class="cls-1" d="M51.04,29H55.6V20.03c0-2.16,1.11-3.27,2.85-3.27s2.76,1.11,2.76,3.27V29h4.56V18.59c0-3.69-2.01-5.97-5.46-5.97A5.689,5.689,0,0,0,55.6,15.2V7.1H51.04V29Zm25.379,0.36a8.376,8.376,0,1,0-8.67-8.37A8.44,8.44,0,0,0,76.419,29.36Zm0.06-3.93a4.272,4.272,0,0,1-4.23-4.44,4.137,4.137,0,0,1,4.17-4.44,4.272,4.272,0,0,1,4.23,4.44A4.137,4.137,0,0,1,76.479,25.43ZM87.249,29h4.56V20.03c0-2.16,1.05-3.27,2.76-3.27s2.67,1.11,2.67,3.27V29H101.8V20.03c0-2.16,1.05-3.27,2.76-3.27s2.67,1.11,2.67,3.27V29h4.56V18.53c0-3.87-2.04-5.91-5.43-5.91a6.618,6.618,0,0,0-5.279,2.55,4.812,4.812,0,0,0-4.53-2.55,5.744,5.744,0,0,0-4.74,2.58v-2.28h-4.56V29Zm34.92,0.36a8.041,8.041,0,0,0,6.569-3l-2.609-2.31a5.269,5.269,0,0,1-3.9,1.65,3.729,3.729,0,0,1-3.93-3.15h11.189c0.03-.42.06-0.84,0.06-1.2,0-4.56-2.46-8.73-7.829-8.73-4.68,0-7.95,3.78-7.95,8.37A8.057,8.057,0,0,0,122.169,29.36Zm-3.93-9.66c0.36-2.07,1.59-3.42,3.48-3.42,1.92,0,3.12,1.38,3.39,3.42h-6.87Zm13.5,14.1h4.56V26.9a6.172,6.172,0,0,0,5.009,2.4c3.81,0,7.32-2.94,7.32-8.31,0-5.43-3.57-8.37-7.32-8.37a5.9,5.9,0,0,0-5.009,2.61v-2.31h-4.56V33.8Zm8.4-8.37c-2.13,0-3.9-1.77-3.9-4.44,0-2.73,1.769-4.5,3.9-4.5s3.93,1.77,3.93,4.44C144.068,23.69,142.268,25.43,140.138,25.43ZM150.788,29h4.56V23.06c0-3.84,1.86-5.67,4.89-5.67h0.24v-4.77c-2.7-.12-4.2,1.32-5.13,3.54v-3.24h-4.56V29Zm18.51,0.36a8.043,8.043,0,0,0,6.57-3l-2.61-2.31a5.269,5.269,0,0,1-3.9,1.65,3.729,3.729,0,0,1-3.93-3.15h11.19c0.03-.42.06-0.84,0.06-1.2,0-4.56-2.46-8.73-7.83-8.73-4.68,0-7.95,3.78-7.95,8.37A8.057,8.057,0,0,0,169.3,29.36Zm-3.93-9.66c0.36-2.07,1.59-3.42,3.48-3.42,1.92,0,3.12,1.38,3.39,3.42h-6.87Zm19.14,9.6c3.48,0,6.15-1.62,6.15-5.19,0-3-2.61-4.08-4.86-4.83-1.74-.6-3.27-1.02-3.27-1.92,0-.69.57-1.17,1.68-1.17a9.527,9.527,0,0,1,4.35,1.5l1.74-3.15a11.129,11.129,0,0,0-6-1.86c-3.24,0-5.88,1.83-5.88,5.1,0,3.18,2.55,4.23,4.8,4.89,1.77,0.54,3.33.87,3.33,1.86,0,0.78-.6,1.26-1.92,1.26a9.092,9.092,0,0,1-5.07-1.92l-1.95,3A11.264,11.264,0,0,0,184.508,29.3Zm13.56,0c3.48,0,6.15-1.62,6.15-5.19,0-3-2.61-4.08-4.86-4.83-1.74-.6-3.27-1.02-3.27-1.92,0-.69.57-1.17,1.68-1.17a9.527,9.527,0,0,1,4.35,1.5l1.74-3.15a11.129,11.129,0,0,0-6-1.86c-3.24,0-5.88,1.83-5.88,5.1,0,3.18,2.55,4.23,4.8,4.89,1.77,0.54,3.33.87,3.33,1.86,0,0.78-.6,1.26-1.92,1.26a9.092,9.092,0,0,1-5.07-1.92l-1.95,3A11.264,11.264,0,0,0,198.068,29.3Z"/>
  <circle class="cls-2" cx="21" cy="21" r="21"/>
  <path id="Forma_1" data-name="Forma 1" class="cls-3" d="M27,8.993h3v4.543l-3-2.243v-2.3Zm4.016,8.9a1.743,1.743,0,0,0-.7-1.4L22.066,9.627a1.785,1.785,0,0,0-2.129,0L11.691,16.5a1.742,1.742,0,0,0-.7,1.4v10.36a1.758,1.758,0,0,0,1.768,1.749H29.248a1.759,1.759,0,0,0,1.768-1.749V17.9ZM23,23a1.118,1.118,0,0,0-.948-1.02h-2.1A1.121,1.121,0,0,0,19,23v3H15V19l6-5.064L27,19v7H23V23Z"/>
</svg>
